<svg width="103" height="101" viewBox="0 0 103 101" fill="none" xmlns="http://www.w3.org/2000/svg">
<path d="M75.456 101L74.635 101.571L74.9334 102H75.456V101ZM51.12 66.008L51.941 65.437L51.1126 64.246L50.2943 65.4439L51.12 66.008ZM27.216 101V102H27.7439L28.0417 101.564L27.216 101ZM0.432 101L-0.376638 100.412L-1.53218 102H0.432V101ZM37.728 49.736L38.5366 50.3243L38.961 49.741L38.5414 49.1543L37.728 49.736ZM2.304 0.199993V-0.800007H0.359497L1.49059 0.781677L2.304 0.199993ZM28.8 0.199993L29.6157 -0.378521L29.3167 -0.800007H28.8V0.199993ZM51.984 32.888L51.1683 33.4665L51.9917 34.6274L52.8048 33.4593L51.984 32.888ZM74.736 0.199993V-0.800007H74.2137L73.9153 -0.371284L74.736 0.199993ZM99.936 0.199993L100.747 0.785309L101.891 -0.800007H99.936V0.199993ZM64.8 48.872L63.9892 48.2867L63.5669 48.8716L63.9888 49.4568L64.8 48.872ZM102.384 101V102H104.338L103.195 100.415L102.384 101ZM76.277 100.429L51.941 65.437L50.299 66.579L74.635 101.571L76.277 100.429ZM50.2943 65.4439L26.3903 100.436L28.0417 101.564L51.9457 66.5721L50.2943 65.4439ZM27.216 100H0.432V102H27.216V100ZM1.24064 101.588L38.5366 50.3243L36.9194 49.1477L-0.376638 100.412L1.24064 101.588ZM38.5414 49.1543L3.11741 -0.381691L1.49059 0.781677L36.9146 50.3177L38.5414 49.1543ZM2.304 1.19999H28.8V-0.800007H2.304V1.19999ZM27.9843 0.778507L51.1683 33.4665L52.7997 32.3095L29.6157 -0.378521L27.9843 0.778507ZM52.8048 33.4593L75.5568 0.771271L73.9153 -0.371284L51.1632 32.3167L52.8048 33.4593ZM74.736 1.19999H99.936V-0.800007H74.736V1.19999ZM99.1252 -0.385323L63.9892 48.2867L65.6108 49.4573L100.747 0.785309L99.1252 -0.385323ZM63.9888 49.4568L101.573 101.585L103.195 100.415L65.6112 48.2872L63.9888 49.4568ZM102.384 100H75.456V102H102.384V100Z" fill="#FF2B06" fill-opacity="0.7"/>
</svg>
